<svg width="434" height="412" viewBox="0 0 434 412" fill="none" xmlns="http://www.w3.org/2000/svg">
<path d="M196.203 82.4139C184.161 73.5882 171.806 62.7106 163.013 49.5209L155.315 37.9748C153.685 35.5287 150.645 34.4395 147.82 35.2873C145.002 36.1419 143.078 38.7381 143.078 41.6802V146.482C139.133 144.181 134.607 142.766 129.719 142.766C114.983 142.766 103 154.749 103 169.485C103 184.221 114.983 196.203 129.719 196.203C144.455 196.203 156.438 184.22 156.438 169.484V63.6123C165.876 75.5431 177.683 85.4015 188.303 93.19C193.521 97.0126 196.516 102.91 196.516 109.367C196.516 120.417 187.527 129.406 176.477 129.406C172.784 129.406 169.797 132.394 169.797 136.086C169.797 139.778 172.784 142.766 176.477 142.766C194.892 142.766 209.875 127.782 209.875 109.367C209.875 98.7671 204.767 88.6954 196.203 82.4139Z" fill="#AFB3F7"/>
<path d="M322.487 89.5815L228.081 116.3C225.211 117.122 223.234 119.744 223.234 122.726V213.277C219.289 210.976 214.763 209.562 209.875 209.562C195.139 209.562 183.156 221.544 183.156 236.28C183.156 251.016 195.139 262.999 209.875 262.999C224.611 262.999 236.594 251.016 236.594 236.28C236.594 234.757 236.594 154.485 236.594 154.485L317.641 131.583V186.559C313.695 184.258 309.169 182.843 304.281 182.843C289.545 182.843 277.562 194.826 277.562 209.562C277.562 224.297 289.545 236.28 304.281 236.28C319.017 236.28 331 224.297 331 209.562C331 208.039 331 96.0069 331 96.0069C331 91.589 326.774 88.3707 322.487 89.5815Z" fill="#AFB3F7"/>
</svg>
