<svg width="434" height="412" viewBox="0 0 434 412" fill="none" xmlns="http://www.w3.org/2000/svg">
<path d="M43.5156 360H58.3239V341.996H63.4375L73.0256 360H89.1122L78.0327 339.652C83.8388 336.855 87.3011 331.555 87.3011 323.991C87.3011 312.379 79.1779 305.455 67.0597 305.455H43.5156V360ZM58.3239 330.49V317.28H63.544C68.7376 317.28 71.8537 319.304 71.8537 323.991C71.8537 328.652 68.7376 330.49 63.544 330.49H58.3239ZM108.528 336.989C108.555 332.94 110.898 330.49 114.494 330.49C118.249 330.49 120.38 332.94 120.353 336.989V360H135.055V333.899C135.082 324.95 129.435 318.558 120.779 318.558C114.734 318.558 110.259 321.648 108.422 326.868H107.995V305.455H93.8263V360H108.528V336.989ZM149.797 375.341C160.077 375.341 164.898 370.174 167.162 363.409L182.077 319.091H166.629L159.917 347.429H159.491L152.886 319.091H137.545L151.927 361.811L151.608 362.557C150.622 364.821 147.773 364.741 144.15 363.462L140.954 373.903C143.245 374.808 146.414 375.341 149.797 375.341ZM186.258 360H200.96V336.136C200.96 332.567 202.824 330.384 205.86 330.384C208.896 330.384 210.867 332.567 210.867 336.136V360H224.93V336.136C224.93 332.567 226.794 330.384 229.83 330.384C232.867 330.384 234.838 332.567 234.838 336.136V360H249.539V332.408C249.539 324.018 244.159 318.558 236.329 318.558C230.257 318.558 225.356 321.861 223.971 326.868H223.545C222.693 321.861 218.112 318.558 212.359 318.558C206.686 318.558 202.345 321.754 200.64 326.868H200.214V319.091H186.258V360ZM276.499 360.746C289.816 360.746 297.699 352.223 297.699 339.652C297.699 327.081 289.816 318.558 276.499 318.558C263.182 318.558 255.299 327.081 255.299 339.652C255.299 352.223 263.182 360.746 276.499 360.746ZM276.606 349.879C272.664 349.879 270.32 345.964 270.32 339.545C270.32 333.127 272.664 329.212 276.606 329.212C280.334 329.212 282.678 333.127 282.678 339.545C282.678 345.964 280.334 349.879 276.606 349.879ZM325.931 305.455V342.848C325.878 347.056 324.12 349.24 320.817 349.24C317.568 349.24 315.757 347.083 315.597 342.955H300.789C300.736 355.526 309.365 360.746 319.858 360.746C331.95 360.746 340.473 353.501 340.526 342.848V305.455H325.931ZM376.947 322.5H391.116C391.063 311.793 382.807 304.709 369.597 304.709C356.626 304.709 347.464 311.687 347.544 322.074C347.517 330.597 353.43 335.337 363.098 337.415L368.531 338.587C374.604 339.918 376.681 341.436 376.734 343.913C376.681 346.603 374.231 348.494 369.49 348.494C363.817 348.494 360.461 345.831 360.222 340.824H346.159C346.212 354.513 355.481 360.639 369.703 360.639C383.526 360.639 391.809 354.673 391.862 343.913C391.809 335.604 386.855 329.771 374.817 327.188L370.342 326.229C365.175 325.137 362.858 323.619 362.991 321.009C363.018 318.612 365.016 316.854 369.597 316.854C374.391 316.854 376.654 318.958 376.947 322.5Z" fill="#191C24"/>
<path d="M196.203 82.4139C184.161 73.5882 171.806 62.7106 163.013 49.5209L155.315 37.9748C153.685 35.5287 150.645 34.4395 147.82 35.2873C145.002 36.1419 143.078 38.7381 143.078 41.6802V146.482C139.133 144.181 134.607 142.766 129.719 142.766C114.983 142.766 103 154.749 103 169.485C103 184.221 114.983 196.203 129.719 196.203C144.455 196.203 156.438 184.22 156.438 169.484V63.6123C165.876 75.5431 177.683 85.4015 188.303 93.19C193.521 97.0125 196.516 102.91 196.516 109.367C196.516 120.417 187.527 129.406 176.477 129.406C172.784 129.406 169.797 132.394 169.797 136.086C169.797 139.778 172.784 142.766 176.477 142.766C194.892 142.766 209.875 127.782 209.875 109.367C209.875 98.7671 204.767 88.6954 196.203 82.4139Z" fill="#AFB3F7"/>
<path d="M322.487 89.5815L228.081 116.3C225.211 117.122 223.234 119.744 223.234 122.726V213.277C219.289 210.976 214.763 209.562 209.875 209.562C195.139 209.562 183.156 221.544 183.156 236.28C183.156 251.016 195.139 262.999 209.875 262.999C224.611 262.999 236.594 251.016 236.594 236.28C236.594 234.757 236.594 154.485 236.594 154.485L317.641 131.583V186.559C313.695 184.258 309.169 182.843 304.281 182.843C289.545 182.843 277.562 194.826 277.562 209.562C277.562 224.297 289.545 236.28 304.281 236.28C319.017 236.28 331 224.297 331 209.562C331 208.039 331 96.0069 331 96.0069C331 91.589 326.774 88.3707 322.487 89.5815Z" fill="#AFB3F7"/>
</svg>
