<svg width="228" height="228" viewBox="0 0 228 228" fill="none" xmlns="http://www.w3.org/2000/svg">
<path d="M93.2026 47.4139C81.1609 38.5882 68.8061 27.7106 60.013 14.5209L52.3153 2.97479C50.6846 0.528693 47.6449 -0.560542 44.8203 0.287333C42.0023 1.14189 40.0781 3.73806 40.0781 6.68024V111.482C36.1327 109.181 31.6069 107.766 26.7188 107.766C11.9829 107.766 0 119.749 0 134.485C0 149.221 11.9829 161.203 26.7188 161.203C41.4546 161.203 53.4375 149.22 53.4375 134.484V28.6123C62.8763 40.5431 74.6834 50.4015 85.3032 58.19C90.5213 62.0126 93.5156 67.9098 93.5156 74.3673C93.5156 85.4173 84.5266 94.4064 73.4766 94.4064C69.7845 94.4064 66.7969 97.394 66.7969 101.086C66.7969 104.778 69.7845 107.766 73.4766 107.766C91.8916 107.766 106.875 92.7823 106.875 74.3673C106.875 63.7671 101.767 53.6954 93.2026 47.4139Z" fill="#AFB3F7"/>
<path d="M219.487 54.5815L125.081 81.3002C122.211 82.1223 120.234 84.7443 120.234 87.7257V178.277C116.289 175.976 111.763 174.562 106.875 174.562C92.1392 174.562 80.1562 186.544 80.1562 201.28C80.1562 216.016 92.1392 227.999 106.875 227.999C121.611 227.999 133.594 216.016 133.594 201.28C133.594 199.757 133.594 119.485 133.594 119.485L214.641 96.5834V151.559C210.695 149.258 206.169 147.843 201.281 147.843C186.545 147.843 174.562 159.826 174.562 174.562C174.562 189.297 186.545 201.28 201.281 201.28C216.017 201.28 228 189.297 228 174.562C228 173.039 228 61.0069 228 61.0069C228 56.589 223.774 53.3707 219.487 54.5815Z" fill="#AFB3F7"/>
</svg>
